<svg xmlns="http://www.w3.org/2000/svg" width="52" height="52" viewBox="0 0 52 52" fill="none"><path d="M31.5223 24.5993L29.7072 23.5915C30.0356 22.9698 30.2226 22.2622 30.2226 21.5115V20.4189C30.2226 17.9551 28.218 15.9504 25.7541 15.9504C23.2901 15.9504 21.2856 17.955 21.2856 20.4189V21.5115C21.2856 22.305 21.4944 23.0502 21.8586 23.6969L20.212 24.5985C18.9596 25.2924 18.1815 26.6128 18.1815 28.0446V32.3718H33.5516V28.0448C33.5517 26.6129 32.7736 25.2923 31.5223 24.5993ZM24.3229 20.4189C24.3229 19.6298 24.9649 18.9876 25.7542 18.9876C26.5434 18.9876 27.1855 19.6297 27.1855 20.4189V21.5115C27.1855 22.3007 26.5434 22.9427 25.7542 22.9427C24.9649 22.9427 24.3229 22.3007 24.3229 21.5115V20.4189ZM30.5146 29.3346H21.2188V28.0446C21.2188 27.7167 21.397 27.4142 21.6773 27.2589L24.3981 25.7689C24.826 25.9055 25.2815 25.9799 25.7542 25.9799C26.2872 25.9799 26.7986 25.8858 27.273 25.7138L30.0495 27.2553C30.3364 27.4143 30.5147 27.7168 30.5147 28.0448V29.3346H30.5146Z" fill="#F85E00"></path><path d="M45.7595 39.6846C44.6658 39.6846 43.6395 39.9767 42.7519 40.4847L38.3838 36.1166C40.7213 33.2998 42.1284 29.6848 42.1284 25.747C42.1284 21.7619 40.6866 18.1077 38.2984 15.2766L42.4253 11.1497C43.3833 11.7811 44.5288 12.15 45.7594 12.15C49.1091 12.15 51.8344 9.42487 51.8344 6.07507C51.8344 2.72526 49.1092 0 45.7595 0C42.4097 0 39.6845 2.72526 39.6845 6.07496C39.6845 7.09343 39.9376 8.05348 40.3824 8.89741L36.1338 13.1459C33.332 10.8587 29.757 9.48491 25.8665 9.48491C21.9287 9.48491 18.3137 10.8921 15.4969 13.2296L11.3499 9.08258C11.858 8.19512 12.15 7.16885 12.15 6.07496C12.15 2.72526 9.42477 0 6.07496 0C2.72526 0 0 2.72526 0 6.07496C0 9.42467 2.72526 12.1499 6.07496 12.1499C7.23132 12.1499 8.31306 11.8249 9.23413 11.2619L13.3495 15.3772C11.012 18.1939 9.60477 21.8091 9.60477 25.7469C9.60477 29.6372 10.9786 33.2124 13.2657 36.0141L8.89731 40.3824C8.05338 39.9377 7.09333 39.6845 6.07486 39.6845C2.72526 39.6846 0 42.4097 0 45.7595C0 49.1093 2.72526 51.8345 6.07496 51.8345C9.42477 51.8345 12.15 49.1092 12.15 45.7595C12.15 44.5289 11.7811 43.3834 11.1497 42.4254L15.3963 38.1788C18.2273 40.5671 21.8816 42.0088 25.8666 42.0088C29.8044 42.0088 33.4195 40.6016 36.2363 38.2641L40.5727 42.6004C40.0096 43.5214 39.6846 44.6032 39.6846 45.7594C39.6846 49.1091 42.4098 51.8344 45.7596 51.8344C49.1092 51.8345 51.8345 49.1092 51.8345 45.7595C51.8345 42.4098 49.1092 39.6846 45.7595 39.6846ZM45.7595 3.03718C47.4345 3.03718 48.7973 4.39996 48.7973 6.07496C48.7973 7.74997 47.4345 9.11275 45.7595 9.11275C44.0844 9.11275 42.7217 7.75007 42.7217 6.07496C42.7217 4.39986 44.0844 3.03718 45.7595 3.03718ZM3.03718 6.07496C3.03718 4.39996 4.39996 3.03718 6.07496 3.03718C7.75007 3.03718 9.11285 4.39996 9.11285 6.07496C9.11285 7.74997 7.75007 9.11275 6.07496 9.11275C4.39996 9.11275 3.03718 7.75007 3.03718 6.07496ZM6.07496 48.7973C4.39996 48.7973 3.03718 47.4345 3.03718 45.7595C3.03718 44.0845 4.39996 42.7218 6.07496 42.7218C7.75007 42.7218 9.11285 44.0844 9.11285 45.7595C9.11285 47.4346 7.75007 48.7973 6.07496 48.7973ZM25.8666 38.9717C18.5746 38.9717 12.642 33.039 12.642 25.747C12.642 18.4549 18.5746 12.5223 25.8666 12.5223C33.1587 12.5223 39.0913 18.4549 39.0913 25.747C39.0913 33.039 33.1587 38.9717 25.8666 38.9717ZM45.7595 48.7973C44.0844 48.7973 42.7217 47.4345 42.7217 45.7595C42.7217 44.0845 44.0844 42.7218 45.7595 42.7218C47.4345 42.7218 48.7973 44.0844 48.7973 45.7595C48.7973 47.4346 47.4345 48.7973 45.7595 48.7973Z" fill="#F85E00"></path></svg>