<svg xmlns="http://www.w3.org/2000/svg" width="56" height="52" viewBox="0 0 56 52" fill="none"><path d="M56 45.1605V0H0.723145V45.1605H16.9544V48.7287H13.6708V51.9678H43.0524V48.7287H39.7688V45.1605H56ZM52.7611 3.23911V35.2281H3.96202V3.23911H52.7611ZM3.96202 38.4672H52.7611V41.9214H3.96202V38.4672ZM36.5299 48.7287H20.1932V45.1605H36.5299V48.7287Z" fill="#F85E00"></path><path d="M18.9023 29.1086L19.9432 29.5068C22.6579 30.5454 25.5092 31.0645 28.3616 31.0645C31.2133 31.0645 34.066 30.5452 36.7801 29.5068L37.8209 29.1086V18.0075L41.3677 16.8743C40.4958 20.1766 40.7362 23.7248 42.0913 26.8907L42.4023 27.6174L45.3799 26.3428L45.0689 25.6161C43.7666 22.5735 43.7666 19.0836 45.0689 16.0409L45.2419 15.6365L49.5475 14.261L28.3616 7.49268L7.17563 14.2611L18.9023 18.0076V29.1086ZM34.5819 26.8479C30.533 28.1509 26.1901 28.1509 22.1412 26.8479V19.0423L28.3616 21.0296L34.5819 19.0423V26.8479ZM28.3616 10.893L38.904 14.261L28.3616 17.6291L17.8191 14.2611L28.3616 10.893Z" fill="#F85E00"></path></svg>