<svg xmlns="http://www.w3.org/2000/svg" id="Layer_1" data-name="Layer 1" viewBox="0 0 512 189"><defs><style>      .cls-1 {        fill: #ef592b;      }      .cls-1, .cls-2 {        stroke-width: 0px;      }      .cls-3 {        isolation: isolate;      }      .cls-2 {        fill: #172949;      }    </style></defs><g class="cls-3"><g class="cls-3"><path class="cls-2" d="M183.3,62.5c.5.8.9,1.8,1.3,3,.4,1.3.6,2.6.6,4,0,2.7-.6,4.6-1.7,5.7-1.1,1.1-2.7,1.7-4.6,1.7h-21.7v11.7h22.6c.6.8,1,1.8,1.4,3,.4,1.2.6,2.5.6,3.9,0,2.6-.6,4.5-1.7,5.6-1.1,1.1-2.7,1.7-4.6,1.7h-18.1v21.8c-.8.2-1.9.4-3.6.6-1.6.2-3.2.3-4.8.3s-3-.1-4.2-.4c-1.2-.2-2.2-.7-3-1.3-.8-.6-1.4-1.5-1.9-2.6-.4-1.1-.6-2.5-.6-4.3v-44.9c0-3,.9-5.3,2.6-7,1.7-1.7,4.1-2.6,7-2.6h34.4Z"></path><path class="cls-2" d="M190.5,93.7c0-5.4.8-10.1,2.5-14.3,1.7-4.1,4-7.6,6.9-10.4,2.9-2.8,6.4-4.9,10.3-6.4,4-1.4,8.2-2.2,12.9-2.2s8.9.7,12.9,2.2c4,1.4,7.4,3.6,10.4,6.4,3,2.8,5.3,6.2,7,10.4,1.7,4.1,2.5,8.9,2.5,14.3s-.8,10.1-2.5,14.3c-1.7,4.2-3.9,7.6-6.9,10.4-2.9,2.8-6.4,4.9-10.4,6.4-4,1.4-8.3,2.2-13,2.2s-9-.7-13-2.2c-4-1.5-7.4-3.6-10.3-6.5-2.9-2.8-5.2-6.3-6.8-10.4s-2.5-8.8-2.5-14.2ZM209.1,93.7c0,6.3,1.3,11,3.8,14,2.5,3.1,6,4.6,10.2,4.6s7.8-1.5,10.3-4.6c2.5-3.1,3.8-7.8,3.8-14s-1.3-10.8-3.8-13.9c-2.5-3.1-5.9-4.6-10.3-4.6s-7.7,1.5-10.3,4.6c-2.6,3.1-3.9,7.7-3.9,14Z"></path><path class="cls-2" d="M284.3,124.7c-.8.2-1.9.4-3.6.6-1.6.2-3.2.3-4.8.3s-3-.1-4.2-.4c-1.2-.2-2.2-.7-3-1.3-.8-.6-1.4-1.5-1.9-2.6-.4-1.1-.6-2.5-.6-4.3v-48.7c0-1.4.4-2.6,1.2-3.4.8-.8,1.9-1.4,3.3-1.9,2.3-.8,5-1.4,8-1.8,3-.4,6-.6,9-.6,9.5,0,16.8,2,21.8,6.1,5,4.1,7.5,9.6,7.5,16.5s-.5,6.4-1.6,9.1c-1.1,2.7-2.7,5.1-4.8,7-2.1,2-4.8,3.5-8,4.5-3.2,1.1-6.9,1.6-11.1,1.6h-7.3v19ZM289.7,91.5c2.9,0,5.1-.7,6.7-2s2.3-3.4,2.3-6.1-.8-4.6-2.4-6c-1.6-1.4-4-2.1-7.1-2.1s-2,0-2.7,0c-.7,0-1.5.1-2.2.3v16h5.5Z"></path></g><g class="cls-3"><path class="cls-1" d="M344.5,100.2c-3-1-5.8-2.1-8.3-3.2-2.5-1.1-4.6-2.4-6.4-3.9-1.8-1.5-3.2-3.3-4.2-5.4-1-2.1-1.5-4.7-1.5-7.7,0-5.9,2.3-10.5,6.8-14,4.5-3.5,10.8-5.3,19-5.3s5.7.2,8.3.6c2.5.4,4.7,1.1,6.6,1.9,1.8.9,3.3,2,4.3,3.3s1.5,2.9,1.5,4.7-.4,3.3-1.2,4.6c-.8,1.3-1.8,2.4-3,3.3-1.5-1-3.5-1.8-6.1-2.5-2.5-.7-5.3-1.1-8.4-1.1s-5.4.4-6.8,1.3c-1.4.9-2.2,1.9-2.2,3.3s.4,1.9,1.3,2.5c.9.7,2.2,1.3,4,1.8l5.5,1.8c6.5,2.1,11.4,4.7,14.9,7.9,3.5,3.2,5.2,7.6,5.2,13.1s-2.3,10.6-6.9,14.2c-4.6,3.6-11.4,5.4-20.4,5.4s-6.1-.3-8.8-.8c-2.7-.5-5.1-1.3-7.1-2.3-2-1-3.6-2.2-4.8-3.7-1.1-1.5-1.7-3.2-1.7-5.1s.6-3.7,1.8-5.1c1.2-1.4,2.4-2.5,3.8-3.3,1.9,1.5,4.3,2.8,7.1,3.9,2.8,1.1,5.8,1.7,9.1,1.7s5.7-.5,7.1-1.5c1.4-1,2.1-2.2,2.1-3.6s-.6-2.4-1.7-3.2c-1.1-.7-2.7-1.4-4.6-2.1l-4.3-1.4Z"></path><path class="cls-1" d="M416,75.1c-5.3,0-9.4,1.6-12.2,4.9-2.8,3.2-4.2,7.8-4.2,13.7s1.6,10.6,4.7,13.8c3.1,3.2,7.4,4.9,12.7,4.9s5.2-.4,7.2-1.1c2-.8,3.8-1.6,5.6-2.6,1.2,1,2.1,2.1,2.7,3.5s1,2.9,1,4.7c0,2.8-1.6,5.2-4.7,7.2-3.1,2-7.9,2.9-14.3,2.9s-9-.7-13-2c-4.1-1.3-7.6-3.3-10.6-6-3-2.7-5.4-6.2-7.2-10.3-1.8-4.2-2.6-9.1-2.6-14.9s.8-10.1,2.5-14.2c1.7-4.1,4-7.6,6.9-10.4,2.9-2.8,6.4-5,10.3-6.4,3.9-1.4,8.1-2.2,12.6-2.2,6.3,0,11.2,1,14.7,3.1,3.5,2.1,5.2,4.7,5.2,8s-.4,3.3-1.3,4.6c-.9,1.3-1.9,2.3-3.1,3.1-1.8-1.2-3.7-2.2-5.7-3-2-.8-4.4-1.2-7.1-1.2Z"></path><path class="cls-1" d="M492.3,100c0,4.3-.7,8.1-2,11.4-1.3,3.3-3.2,6.1-5.5,8.4-2.4,2.3-5.2,4-8.5,5.2-3.3,1.2-7,1.8-11.1,1.8s-7.7-.6-11.1-1.9c-3.3-1.2-6.1-3-8.5-5.3-2.4-2.3-4.2-5.1-5.5-8.4-1.3-3.3-2-7-2-11.2s.7-7.7,2-11.1c1.3-3.3,3.2-6.1,5.5-8.4,2.4-2.3,5.2-4.1,8.5-5.3,3.3-1.2,7-1.9,11.1-1.9s7.7.6,11.1,1.9c3.3,1.3,6.1,3.1,8.5,5.4,2.4,2.3,4.2,5.1,5.5,8.4,1.3,3.3,2,7,2,11ZM456.2,100c0,4.2.8,7.4,2.4,9.7,1.6,2.2,3.9,3.4,6.8,3.4s5.1-1.1,6.7-3.4c1.5-2.3,2.3-5.5,2.3-9.6s-.8-7.3-2.4-9.6c-1.6-2.2-3.8-3.4-6.7-3.4s-5.1,1.1-6.7,3.4c-1.6,2.2-2.4,5.4-2.4,9.6Z"></path></g></g><g><g><circle class="cls-2" cx="49.5" cy="49.4" r="6.1"></circle><path class="cls-2" d="M67.6,50.9c-3.1-2.6-6.5-3.5-10.3-3.9,1.2,4-.8,8.2-4.6,9.9-4,1.7-8.5,0-10.5-3.7-3.3,2.2-6.5,4.9-8.8,7.2-4.2,4.3-5.6,7-5.6,7,1.2-1.5,7.5-5.3,13-4.8,8.6.8,12.1,5.2,12.1,5.2l6.5,10.9s1.1-.6,2.6-1.2c.7-.3,1.3-.5,2-.6h0c-.4-1.3-.8-3.1-1-3.7-.7-2.6-1.4-5.2-2.2-7.7,0-.3,0-.5.1-.7.6-.8,1.2-1.5,1.9-2.4.7,3.9,1.9,10.1,2.6,14.2.2,0,.4,0,.6,0h0c.2,0,.4,0,.6,0-.2-1.3-.3-2.9-.4-3.4-.5-4-1.1-8-1.6-12,0-.2,0-.4.2-.6,1.1-1.3,2.1-2.5,3.2-3.7,0,0,0,0,.2-.2,0,0,.1,0,.2.1,1.1,1,2.1,1.9,3.2,2.9.2.2.3.3.2.6-.5,4.5-1.2,11.7-1.7,16.2h0c.4,0,.9.2,1.2.2l2.5-14.5s-.7-6.2-6.5-11.1h0Z"></path><circle class="cls-2" cx="87.3" cy="139.6" r="6.1"></circle><path class="cls-2" d="M69.2,138c3.1,2.6,6.5,3.6,10.2,3.9-1.2-3.9.8-8.2,4.7-9.9s8.5,0,10.4,3.8c3.4-2.1,6.6-4.8,8.8-7.2,4.2-4.3,5.7-6.9,5.7-6.9-1.2,1.5-7.6,5.3-13,4.8-8.6-.8-12-5.3-12-5.3l-6.5-10.9s-1.1.6-2.6,1.2c-.7.3-1.4.5-2,.6h0c.3,1.3.8,3.1,1,3.7.7,2.6,1.4,5.2,2.1,7.7,0,.3,0,.5-.1.7-.6.8-1.2,1.5-1.9,2.4-.7-4-1.8-10.2-2.6-14.2-.2,0-.4,0-.6,0h0c-.2,0-.4,0-.6,0,.1,1.3.3,2.9.4,3.4.5,4,1,8,1.5,12,0,.2,0,.4-.2.6-1.1,1.2-2.1,2.5-3.2,3.7,0,0,0,0-.2.1,0,0-.1,0-.2-.1-1.1-1-2.1-1.9-3.2-2.9-.2-.2-.3-.4-.2-.6.5-4.6,1.2-11.7,1.7-16.2h0c-.4,0-.9-.2-1.2-.2l-2.6,14.5s.7,6.2,6.5,11.2h0Z"></path><circle class="cls-2" cx="23.3" cy="113.4" r="6.1"></circle><path class="cls-2" d="M24.9,95.3c-2.6,3.1-3.5,6.5-3.9,10.3,4-1.2,8.2.8,9.9,4.6s0,8.5-3.7,10.5c2.2,3.3,4.9,6.5,7.2,8.8,4.3,4.2,7,5.6,7,5.6-1.5-1.2-5.3-7.5-4.8-13,.8-8.6,5.2-12.1,5.2-12.1l10.9-6.5s-.6-1.1-1.2-2.6c-.3-.7-.5-1.3-.6-2h0c-1.3.3-3.1.8-3.7,1-2.6.7-5.2,1.4-7.7,2.2-.3,0-.5,0-.7-.1-.8-.6-1.5-1.2-2.4-1.9,4-.7,10.1-1.9,14.2-2.6,0-.2,0-.4,0-.6h0c0-.2,0-.4,0-.6-1.3.2-2.9.3-3.4.4-4,.5-8,1.1-12,1.6-.2,0-.4,0-.6-.2-1.3-1.1-2.5-2.1-3.7-3.2,0,0,0,0-.1-.2,0,0,0-.1.1-.2,1-1.1,1.9-2.1,2.9-3.2.2-.2.3-.3.6-.2,4.5.5,11.7,1.2,16.2,1.7h0c0-.4.2-.9.2-1.2l-14.5-2.5s-6.2.7-11.1,6.5h0Z"></path><circle class="cls-2" cx="113.5" cy="75.6" r="6.1"></circle><path class="cls-2" d="M111.9,93.7c2.6-3.1,3.6-6.5,3.9-10.2-3.9,1.2-8.2-.8-9.9-4.7s0-8.5,3.8-10.4c-2.1-3.4-4.8-6.5-7.2-8.8-4.3-4.2-6.9-5.7-6.9-5.7,1.5,1.2,5.3,7.6,4.8,13-.8,8.6-5.3,12-5.3,12l-10.9,6.5s.6,1.1,1.2,2.6c.3.7.5,1.4.6,2h0c1.3-.3,3.1-.8,3.7-1,2.6-.7,5.2-1.4,7.7-2.1.3,0,.5,0,.7.1.8.6,1.5,1.2,2.4,1.9-4,.7-10.2,1.8-14.2,2.6,0,.2,0,.4,0,.6h0c0,.2,0,.4,0,.6,1.3-.1,2.9-.3,3.4-.4,4-.5,8-1,12-1.5.2,0,.4,0,.6.2,1.2,1.1,2.5,2.1,3.7,3.2,0,0,0,0,.2.2,0,0,0,.1-.1.2-1,1.1-1.9,2.1-2.9,3.2-.2.2-.3.3-.6.2-4.6-.5-11.7-1.2-16.2-1.7h0c0,.4-.2.9-.2,1.2l14.5,2.6s6.2-.7,11.2-6.5h0Z"></path></g><g><circle class="cls-1" cx="23.1" cy="76" r="6.1"></circle><path class="cls-1" d="M37,64.2c-4,.4-7.1,2.1-10,4.5,3.6,2,5.3,6.4,3.7,10.3-1.6,4-6,6-10,4.8-.9,3.9-1.2,8.1-1.1,11.3,0,6,.9,8.9.9,8.9-.2-1.9,1.6-9.1,5.8-12.6,6.6-5.5,12.2-4.8,12.2-4.8l12.3,3.1s.3-1.2,1-2.7c.3-.7.6-1.3,1-1.8h0c-1.2-.7-2.8-1.6-3.3-1.9-2.3-1.3-4.7-2.6-7-3.9-.2-.1-.4-.3-.4-.6,0-1-.2-1.9-.4-3,3.3,2.3,8.5,5.8,11.9,8.2.1-.2.2-.3.4-.5,0,0,0,0,0,0,0-.1.2-.3.3-.4-1-.8-2.3-1.8-2.7-2.2-3.2-2.5-6.4-4.9-9.6-7.4-.2-.1-.2-.4-.3-.6-.1-1.6-.3-3.3-.4-4.9v-.2c0,0,.2,0,.2,0,1.5,0,2.9-.1,4.3-.2.3,0,.4,0,.6.3,2.9,3.6,7.4,9.1,10.3,12.7h0c.3-.2.7-.5,1-.7l-8.5-12s-4.9-3.9-12.5-3.3h0Z"></path><circle class="cls-1" cx="113.7" cy="113" r="6.1"></circle><path class="cls-1" d="M99.7,124.7c4-.3,7.1-2.1,10-4.5-3.6-2-5.2-6.4-3.7-10.3,1.6-4,6-6,10.1-4.7.9-3.9,1.2-8.1,1.2-11.3,0-6-.9-8.9-.9-8.9.2,1.9-1.6,9.1-5.9,12.6-6.7,5.5-12.2,4.8-12.2,4.8l-12.3-3.1s-.3,1.2-1,2.7c-.3.7-.6,1.3-1,1.8h0c1.2.7,2.7,1.6,3.3,1.9,2.3,1.3,4.6,2.7,7,4,.2.1.4.3.4.6,0,1,.2,1.9.4,3-3.3-2.3-8.5-5.9-11.9-8.2-.1.2-.3.3-.4.5,0,0,0,0,0,0,0,.1-.2.3-.4.4,1,.8,2.3,1.8,2.7,2.2,3.2,2.5,6.4,4.9,9.6,7.4.2.1.2.4.3.6.1,1.6.2,3.3.4,4.9,0,0,0,.1,0,.2,0,0-.2,0-.2,0-1.5,0-2.9.1-4.3.2-.3,0-.4,0-.6-.3-2.9-3.6-7.4-9.1-10.3-12.7h0c-.3.2-.7.5-1,.7l8.4,12.1s4.9,3.9,12.5,3.3h0Z"></path><circle class="cls-1" cx="49.9" cy="139.8" r="6.1"></circle><path class="cls-1" d="M38.2,125.9c.4,4,2.1,7.1,4.5,10,2-3.6,6.4-5.3,10.3-3.7,4,1.6,6,6,4.8,10,3.9.9,8.1,1.2,11.3,1.1,6,0,8.9-.9,8.9-.9-1.9.2-9.1-1.6-12.6-5.8-5.5-6.6-4.8-12.2-4.8-12.2l3.1-12.3s-1.2-.3-2.7-1c-.7-.3-1.3-.6-1.8-.9h0c-.7,1.2-1.6,2.8-1.9,3.3-1.3,2.3-2.6,4.7-3.9,7-.1.2-.3.4-.6.4-1,0-1.9.2-3,.4,2.3-3.3,5.8-8.5,8.2-11.9-.2-.1-.3-.2-.5-.4,0,0,0,0,0,0-.1,0-.3-.2-.5-.3-.8,1-1.8,2.3-2.2,2.7-2.5,3.2-4.9,6.4-7.4,9.6-.1.2-.4.2-.6.3-1.6.1-3.3.3-4.9.4h-.2c0,0,0-.2,0-.2,0-1.5-.1-2.9-.2-4.3,0-.3,0-.4.3-.6,3.5-2.9,9.1-7.4,12.7-10.3h0c-.2-.3-.5-.8-.7-1l-12,8.5s-3.9,4.9-3.3,12.5h0Z"></path><circle class="cls-1" cx="87" cy="49.2" r="6.1"></circle><path class="cls-1" d="M98.7,63.2c-.3-4-2.1-7.1-4.5-10-2,3.6-6.4,5.2-10.3,3.7s-6-6-4.7-10c-3.9-.9-8.1-1.2-11.3-1.2-6,0-8.9.9-8.9.9,1.9-.2,9.1,1.6,12.6,5.9,5.5,6.7,4.8,12.2,4.8,12.2l-3.1,12.3s1.2.3,2.7,1c.7.3,1.3.6,1.8,1h0c.7-1.2,1.6-2.7,1.9-3.3,1.3-2.3,2.7-4.6,4-7,.1-.2.3-.4.6-.4,1,0,1.9-.2,3-.4-2.3,3.3-5.9,8.5-8.2,11.9.2.1.3.3.5.4,0,0,0,0,0,0,.1,0,.3.2.4.4.8-1,1.8-2.3,2.2-2.7,2.5-3.2,4.9-6.4,7.4-9.6.1-.2.4-.2.6-.3,1.6-.1,3.3-.2,4.9-.4,0,0,.1,0,.2,0,0,0,0,.2,0,.2,0,1.5.1,2.9.2,4.3,0,.3,0,.4-.3.6-3.6,2.9-9.1,7.4-12.7,10.3h0c.2.3.5.8.7,1l12.1-8.4s3.9-4.9,3.3-12.5h0Z"></path></g></g></svg>