<svg xmlns="http://www.w3.org/2000/svg" width="116" height="116" viewBox="0 0 116 116" fill="none"><circle cx="58" cy="58" r="54" fill="#F6FAFF" stroke="#F85E00" stroke-width="8"></circle><path d="M58.7401 58.5205C57.1328 58.4327 55.5874 58.976 54.3886 60.0507C53.1899 61.1252 52.4814 62.6022 52.3936 64.2095C52.3057 65.8169 52.8492 67.3623 53.9238 68.5611C54.9983 69.7598 56.4753 70.4683 58.0826 70.5561C58.1952 70.5622 58.3071 70.5652 58.419 70.5652C59.9044 70.5652 61.3193 70.0252 62.4342 69.0259C63.6329 67.9514 64.3414 66.4744 64.4292 64.867C64.5171 63.2596 63.9736 61.7142 62.8991 60.5155C61.8245 59.3168 60.3475 58.6082 58.7401 58.5205ZM61.3386 64.6982C61.2959 65.4801 60.9512 66.1985 60.3682 66.7211C59.7851 67.2438 59.0334 67.5076 58.2514 67.4654C57.4695 67.4227 56.7511 67.0781 56.2285 66.495C55.7058 65.9119 55.4415 65.1602 55.4842 64.3782C55.5269 63.5963 55.8715 62.8779 56.4546 62.3553C56.9969 61.8691 57.685 61.6065 58.4077 61.6065C58.4621 61.6065 58.5167 61.608 58.5713 61.6109C59.3532 61.6536 60.0717 61.9982 60.5942 62.5813C61.117 63.1644 61.3813 63.9162 61.3386 64.6982Z" fill="#182955"></path><path d="M56.8637 34H59.9588V37.0951H56.8637V34Z" fill="#182955"></path><path d="M67.9714 42.4709L73.9239 36.5184L76.1121 38.7067L70.1597 44.6591L67.9714 42.4709Z" fill="#182955"></path><path d="M39.6713 38.7037L41.8595 36.5154L47.8119 42.4679L45.6237 44.6561L39.6713 38.7037Z" fill="#182955"></path><path d="M84.2852 63.707C84.1808 63.5456 81.6776 59.7098 77.2745 55.8399C74.6735 53.5539 71.9432 51.7289 69.1596 50.4156C65.636 48.7532 62.0198 47.9103 58.4114 47.9103C54.8031 47.9103 51.1869 48.7532 47.6634 50.4156C44.8797 51.7289 42.1495 53.5539 39.5484 55.8399C35.1453 59.7098 32.642 63.5456 32.5377 63.707L31.9999 64.5383L32.5377 65.3695C32.6421 65.5309 35.1453 69.3667 39.5484 73.2366C42.1495 75.5226 44.8797 77.3476 47.6634 78.6609C51.1869 80.3233 54.8031 81.1662 58.4114 81.1662C62.0198 81.1662 65.636 80.3233 69.1596 78.6609C71.9432 77.3476 74.6735 75.5226 77.2745 73.2366C81.6777 69.3667 84.1808 65.5309 84.2852 65.3695L84.823 64.5383L84.2852 63.707ZM41.6307 70.9916C38.6989 68.4258 36.6394 65.8274 35.6932 64.5387C36.879 62.9265 39.816 59.2614 44.0588 56.1464C42.7616 58.3572 41.9578 60.9 41.8086 63.6311C41.6235 67.02 42.4724 70.23 44.0786 72.9553C43.2528 72.3504 42.4358 71.6961 41.6307 70.9916ZM58.4114 78.1055C50.9185 78.1055 44.8444 72.0312 44.8444 64.5384C44.8444 57.0456 50.9185 50.9712 58.4114 50.9712C65.9044 50.9712 71.9785 57.0455 71.9785 64.5383C71.9785 72.0311 65.9044 78.1055 58.4114 78.1055ZM72.7822 72.9167C74.097 70.6672 74.8681 68.122 75.0143 65.4454C75.1949 62.1389 74.4069 58.9277 72.7658 56.1369C73.5843 56.7372 74.3941 57.3866 75.1922 58.0849C78.1237 60.6504 80.1832 63.2486 81.1297 64.5378C79.9455 66.1478 77.0153 69.8047 72.7822 72.9167Z" fill="#182955"></path></svg>