<svg xmlns="http://www.w3.org/2000/svg" width="116" height="116" viewBox="0 0 116 116" fill="none"><circle cx="58" cy="58" r="54" fill="#F6FAFF" stroke="#F85E00" stroke-width="8"></circle><path d="M81.1219 41.2362L86.823 35.5352L84.5133 33.2255L81.0793 32.8039L80.6962 29.4085L78.2878 27.0001L72.5868 32.701V38.8095L70.8907 40.5056C66.8413 37.0101 61.7304 35.1031 56.3265 35.1031C50.3628 35.1031 44.7561 37.4255 40.5392 41.6425C36.3223 45.8594 33.9999 51.4662 33.9999 57.4299V79.8231H41.1699L43.9034 75.9885C47.5482 78.4393 51.8361 79.7566 56.3266 79.7566C60.8272 79.7566 65.1242 78.4331 68.7743 75.9716L71.52 79.8231H78.6901V57.4299H78.6533C78.6533 51.9442 76.687 46.7615 73.0898 42.6838L74.5373 41.2362H81.1219ZM75.682 33.9831L77.8528 31.8123L78.2776 35.5781L81.9517 36.0293L79.8399 38.141H75.6819V33.9831H75.682ZM39.5752 76.728H37.095V68.7871C38.0411 70.3829 39.1931 71.8711 40.5393 73.2171C40.8387 73.5165 41.1459 73.8054 41.459 74.0855L39.5752 76.728ZM75.595 76.728H73.1147L71.2167 74.0656C71.522 73.7917 71.8216 73.5094 72.1139 73.2171C73.4777 71.8533 74.642 70.3436 75.595 68.724V76.728ZM75.5581 57.4299C75.5581 68.0342 66.9309 76.6615 56.3266 76.6615C45.7222 76.6615 37.095 68.0342 37.095 57.4299C37.095 46.8255 45.7222 38.1982 56.3266 38.1982C61.0293 38.1982 65.3422 39.8959 68.6873 42.7091L65.1928 46.2036C62.7531 44.2728 59.6723 43.1184 56.3266 43.1184C48.4353 43.1184 42.0151 49.5385 42.0151 57.4299C42.0151 65.3212 48.4353 71.7413 56.3266 71.7413C64.2178 71.7413 70.638 65.3212 70.638 57.4299C70.638 53.9968 69.4224 50.8425 67.3998 48.3738L70.8901 44.8835C73.7976 48.2537 75.5581 52.6399 75.5581 57.4299ZM59.2538 57.5898C59.2111 58.3717 58.8664 59.0901 58.2834 59.6127C57.7003 60.1355 56.9463 60.3995 56.1666 60.357C55.3847 60.3143 54.6662 59.9697 54.1437 59.3866C53.621 58.8036 53.3566 58.0518 53.3993 57.2698C53.442 56.4879 53.7867 55.7695 54.3697 55.2469C54.9121 54.7607 55.6002 54.4981 56.3228 54.4981C56.3772 54.4981 56.4319 54.4996 56.4865 54.5025C57.2684 54.5452 57.9869 54.8898 58.5094 55.4729C59.0322 56.056 59.2965 56.8078 59.2538 57.5898ZM59.2431 52.1534C58.4576 51.7185 57.5782 51.4625 56.6554 51.4122C55.048 51.3247 53.5026 51.8678 52.3039 52.9423C51.1051 54.0168 50.3967 55.4938 50.3089 57.1013C50.221 58.7087 50.7645 60.254 51.8389 61.4527C52.9134 62.6514 54.3904 63.3599 55.9979 63.4477C56.1104 63.4539 56.2224 63.4568 56.3342 63.4568C57.8196 63.4568 59.2345 62.9169 60.3494 61.9176C61.5481 60.843 62.2566 59.3661 62.3444 57.7586C62.4117 56.5254 62.1063 55.3294 61.4759 54.2977L65.1984 50.5752C66.6673 52.4721 67.543 54.8505 67.543 57.4298C67.543 63.6145 62.5113 68.6461 56.3267 68.6461C50.142 68.6461 45.1103 63.6145 45.1103 57.4298C45.1103 51.245 50.142 46.2134 56.3267 46.2134C58.8183 46.2134 61.1224 47.0305 62.9862 48.4102L59.2431 52.1534Z" fill="#182955"></path></svg>