<svg xmlns="http://www.w3.org/2000/svg" width="116" height="116" viewBox="0 0 116 116" fill="none"><circle cx="58" cy="58" r="54" fill="#F6FAFF" stroke="#F85E00" stroke-width="8"></circle><path d="M77.4099 55.5997L73.4804 57.384L59.9591 45.418V39.3451H69.6521L67.4625 34.6726L69.6521 30.0001H56.864V45.418L43.4619 57.2784L39.3788 55.6266L32 61.3759V82.8231H84.8231V61.3759L77.4099 55.5997ZM64.7837 36.25H59.9591V33.0952H64.7837L64.0445 34.6726L64.7837 36.25ZM81.728 62.888V72.7602L63.4181 65.3524L76.9846 59.1921L81.728 62.888ZM58.4115 48.1816L70.3939 58.7855L59.4593 63.7507L46.6669 58.5751L58.4115 48.1816ZM39.8729 59.1653L75.3242 73.5082H35.0951V62.888L39.8729 59.1653ZM35.0951 79.728V76.6033H81.728V79.728H35.0951Z" fill="#182955"></path></svg>