<svg xmlns="http://www.w3.org/2000/svg" width="52" height="52" viewBox="0 0 52 52" fill="none"><path d="M17.5408 51.9999H5.03527L7.26416 47.0897L0 37.3054V13.5515H3.43322C6.6232 13.5515 9.21852 16.1468 9.21852 19.3368V29.6206C11.0877 28.9721 13.182 29.6278 14.2938 31.3123L19.4222 38.2811L19.4481 38.3213C21.0053 40.743 21.3247 43.816 20.3022 46.5414L20.2727 46.6204L17.5408 51.9999ZM9.75041 48.9621H15.6764L17.4856 45.3993C18.1444 43.576 17.9384 41.6162 16.9173 40.0026L11.7674 32.9995C11.3919 32.4155 10.5715 32.2448 9.93809 32.6192C9.60639 32.8153 9.37666 33.1223 9.29084 33.4839C9.21537 33.8023 9.26392 34.1258 9.42754 34.3998L14.1974 40.8195L11.759 42.6313L6.92169 36.1209L6.89386 36.0778C6.47806 35.431 6.24995 34.7026 6.22009 33.9542L6.18059 19.337C6.18059 17.822 4.94802 16.5896 3.43312 16.5896H3.03773V36.3011L10.7701 46.7159L9.75041 48.9621Z" fill="#F85E00"></path><path d="M46.9647 51.9999H34.4592L31.7274 46.6204L31.6979 46.5414C30.6753 43.816 30.9947 40.7431 32.552 38.3213L32.6063 38.2425L37.7063 31.3123C38.818 29.6279 40.9127 28.9723 42.7817 29.6205V19.3368C42.7817 16.1468 45.3769 13.5515 48.5669 13.5515H52V37.3054L44.7358 47.0898L46.9647 51.9999ZM36.3236 48.9621H42.2496L41.2299 46.7157L48.9623 36.3009V16.5893H48.5668C47.0518 16.5893 45.8194 17.8219 45.8194 19.3368L45.7799 33.954C45.75 34.7024 45.522 35.4308 45.1061 36.0776L45.0477 36.162L40.241 42.6311L37.8026 40.8193L42.5727 34.3997C42.7361 34.1257 42.7847 33.8023 42.7093 33.4839C42.6235 33.1223 42.3936 32.8152 42.0619 32.6191C41.4288 32.2448 40.6081 32.4154 40.2325 32.9996L35.0828 40.0025C34.0617 41.6161 33.8558 43.576 34.5145 45.3993L36.3236 48.9621Z" fill="#F85E00"></path><path d="M25.9228 33.6814L20.5594 30.6166C15.6458 27.8087 12.5933 22.5488 12.5933 16.8894V3.18145L25.9228 0L39.2523 3.18145V16.8894C39.2523 22.5488 36.1998 27.8087 31.2862 30.6166L25.9228 33.6814ZM15.6312 5.57964V16.8895C15.6312 21.4615 18.0971 25.7109 22.0667 27.9791L25.9228 30.1826L29.7789 27.9791C33.7485 25.7109 36.2144 21.4615 36.2144 16.8895V5.57964L25.9228 3.12315L15.6312 5.57964Z" fill="#F85E00"></path><path d="M24.184 21.0277L19.577 16.4206L21.725 14.2725L24.184 16.7315L30.7281 10.1875L32.8762 12.3355L24.184 21.0277Z" fill="#F85E00"></path></svg>