<svg xmlns="http://www.w3.org/2000/svg" width="45" height="48" viewBox="0 0 45 48" fill="none"><path d="M24.5284 14.1284V4.55502L16.7587 0L8.98909 4.55502V14.1283L4.66651 39.6194H3.05176e-05V47.8345H33.5174V39.6194H28.8509L24.5284 14.1284ZM19.7475 14.8932L10.0566 24.584L11.6999 14.8932H19.7475ZM9.24788 29.3533L22.0916 16.5096L22.9214 21.4035L8.0792 36.2458L9.24788 29.3533ZM23.4957 24.7899L24.3255 29.6837L14.3898 39.6194H8.66611L23.4957 24.7899ZM24.8998 33.0701L26.0103 39.6195H18.3505L24.8998 33.0701ZM11.7896 6.15953L16.7587 3.24639L21.7278 6.15953V12.0926H18.159V8.97336H15.3585V12.0926H11.7896V6.15953ZM30.7168 42.4201V45.0339H2.80059V42.4201H30.7168Z" fill="#F85E00"></path><path d="M42.1751 1.86548L26.8385 7.39083V9.90822L42.1847 15.2084H44.3989V1.86548H42.1751ZM41.5983 12.0429L31.6884 8.62033L41.5983 5.05012V12.0429Z" fill="#F85E00"></path></svg>