<svg xmlns="http://www.w3.org/2000/svg" width="48" height="48" viewBox="0 0 48 48" fill="none"><path d="M1.1488 44.6331L10.3433 35.5033L12.3193 37.4933L3.12478 46.623L1.1488 44.6331Z" fill="#F85E00"></path><path d="M0 37.8506L5.21444 32.6729L7.19041 34.6629L1.97598 39.8406L0 37.8506Z" fill="#F85E00"></path><path d="M7.2016 30.6948L9.19159 28.7188L11.1676 30.7088L9.17758 32.6848L7.2016 30.6948Z" fill="#F85E00"></path><path d="M11.942 41.9109L17.1565 36.7331L19.1325 38.7231L13.918 43.9009L11.942 41.9109Z" fill="#F85E00"></path><path d="M7.96497 45.865L9.95496 43.889L11.9309 45.879L9.94094 47.855L7.96497 45.865Z" fill="#F85E00"></path><path d="M43.5526 9.34268e-05C43.5203 0 43.4879 0 43.4554 0C40.2284 0 37.0657 0.547387 34.0535 1.6274C31.1135 2.68154 28.3863 4.21616 25.9476 6.18887C24.8435 7.08194 23.8142 8.05647 22.8651 9.09939C20.9767 8.92515 19.0797 9.23692 17.3301 10.0168C15.2885 10.9268 13.5872 12.4134 12.4101 14.3159L8.43323 20.7433L15.26 22.606L11.9144 25.9289L21.6656 35.7469L25.0112 32.4239L26.8274 39.2633L33.2819 35.3301C35.1922 34.166 36.6903 32.4748 37.6143 30.4396C38.4061 28.6953 38.7307 26.8005 38.5693 24.9108C39.6187 23.969 40.6003 22.9463 41.5007 21.8484C43.4899 19.4232 45.0432 16.7065 46.1173 13.7738C47.2288 10.7388 47.798 7.54655 47.8092 4.28595L47.8238 0.014668L43.5526 9.34268e-05ZM43.5432 2.8029L45.0116 2.80785L45.0065 4.27633C44.9998 6.25801 44.7633 8.21081 44.3031 10.1105C42.7339 9.66491 41.3132 8.82892 40.1394 7.64698C38.9654 6.46495 38.1391 5.03841 37.7042 3.46613C39.6069 3.01862 41.5611 2.79496 43.5432 2.8029ZM14.7936 15.7906C16.1038 13.6731 18.2335 12.3045 20.5941 11.9474C18.8656 14.4289 17.5407 17.1822 16.6945 20.0923L12.791 19.0272L14.7936 15.7906ZM15.8781 25.9425L17.6885 24.1444L23.4894 29.985L21.6791 31.783L15.8781 25.9425ZM31.8234 32.9368L28.5733 34.9172L27.5348 31.0067C30.4505 30.1803 33.2127 28.8742 35.7059 27.1627C35.3327 29.5207 33.9498 31.641 31.8234 32.9368ZM39.3338 20.071C35.9072 24.2486 31.1894 27.2284 25.9838 28.5191L19.1714 21.6601C20.4975 16.4634 23.5094 11.766 27.7103 8.36805C29.9038 6.59369 32.3563 5.21349 34.9994 4.26577C35.0047 4.26381 35.0102 4.26213 35.0155 4.26017C35.5805 6.27632 36.6441 8.10524 38.1507 9.62212C39.6572 11.139 41.4788 12.2151 43.4912 12.7939C43.4892 12.7992 43.4874 12.8046 43.4855 12.8098C42.5199 15.4465 41.123 17.8895 39.3338 20.071Z" fill="#F85E00"></path><path d="M31.1311 11.1406C31.1247 11.1406 31.1183 11.1406 31.1119 11.1406C29.6575 11.1406 28.2888 11.7047 27.2564 12.7302C26.2193 13.7601 25.6455 15.1324 25.6405 16.5939C25.6354 18.0555 26.2 19.4316 27.23 20.4686C28.298 21.5438 29.705 22.0819 31.1127 22.0819C32.5076 22.0819 33.903 21.5533 34.9685 20.4951C36.0055 19.465 36.5793 18.0929 36.5843 16.6313C36.5893 15.1697 36.0248 13.7937 34.9947 12.7567C33.9649 11.7195 32.5927 11.1457 31.1311 11.1406ZM32.9934 18.5063C31.949 19.5435 30.2559 19.5377 29.2187 18.4935C28.7163 17.9876 28.4409 17.3164 28.4434 16.6035C28.4457 15.8905 28.7257 15.2212 29.2316 14.7188C29.7353 14.2186 30.4027 13.9434 31.1123 13.9434H31.1216C31.8346 13.9459 32.5039 14.2258 33.0063 14.7317C33.5088 15.2375 33.7841 15.9087 33.7817 16.6216C33.7792 17.3345 33.4993 18.0039 32.9934 18.5063Z" fill="#F85E00"></path></svg>