<svg xmlns="http://www.w3.org/2000/svg" width="56" height="56" viewBox="0 0 56 56" fill="none"><path d="M26.3594 0H29.6406V3.28125H26.3594V0Z" fill="#F85E00"></path><path d="M26.3594 52.7188H29.6406V56H26.3594V52.7188Z" fill="#F85E00"></path><path d="M52.7188 26.3594H56V29.6406H52.7188V26.3594Z" fill="#F85E00"></path><path d="M0 26.3594H3.28125V29.6406H0V26.3594Z" fill="#F85E00"></path><path d="M44.6973 8.98145L51.0077 2.671L53.3276 4.99085L47.0171 11.3013L44.6973 8.98145Z" fill="#F85E00"></path><path d="M2.66066 51.0093L8.9711 44.6988L11.2909 47.0187L4.9805 53.3291L2.66066 51.0093Z" fill="#F85E00"></path><path d="M44.6928 47.0232L47.0126 44.7033L53.3231 51.0138L51.0032 53.3336L44.6928 47.0232Z" fill="#F85E00"></path><path d="M2.66516 4.98633L4.98501 2.66648L11.2954 8.97692L8.9756 11.2968L2.66516 4.98633Z" fill="#F85E00"></path><path d="M28 6.62231C16.2271 6.62231 6.64912 16.2003 6.64912 27.9732C6.64912 39.7461 16.2271 49.3241 28 49.3241C39.7729 49.3241 49.3509 39.7461 49.3509 27.9732C49.3509 16.2003 39.7729 6.62231 28 6.62231ZM46.0246 26.7065H39.2656V29.2266C39.2656 30.1313 38.5296 30.8673 37.625 30.8673C36.7204 30.8673 35.9844 30.1313 35.9844 29.2266V26.7065H29.6406V23.3336C31.9944 22.9665 33.8013 20.9255 33.8013 18.4705C33.8013 16.0154 31.9944 13.9745 29.6406 13.6073V9.97881C38.4219 10.773 45.41 17.8754 46.0246 26.7065ZM26.3594 9.97881V16.8298H28.8794C29.784 16.8298 30.52 17.5658 30.52 18.4705C30.52 19.3751 29.784 20.1111 28.8794 20.1111H26.3594V26.7065H22.9865C22.6194 24.3528 20.5784 22.5459 18.1234 22.5459C15.6685 22.5459 13.6275 24.3529 13.2604 26.7065H9.97544C10.59 17.8754 17.5781 10.773 26.3594 9.97881ZM10.0432 29.9878H16.4827V27.4678C16.4827 26.5631 17.2187 25.8271 18.1233 25.8271C19.028 25.8271 19.764 26.5631 19.764 27.4678V29.9878H26.3594V33.109C24.0056 33.4761 22.1986 35.5171 22.1986 37.9721C22.1986 40.4272 24.0056 42.4681 26.3594 42.8353V45.9676C17.8274 45.1959 10.9886 38.4693 10.0432 29.9878ZM29.6406 45.9676V39.6128H27.1205C26.2159 39.6128 25.4799 38.8768 25.4799 37.9721C25.4799 37.0675 26.2159 36.3315 27.1205 36.3315H29.6406V29.9878H32.7619C33.1287 32.3416 35.1699 34.1485 37.625 34.1485C40.0801 34.1485 42.1212 32.3416 42.4881 29.9878H45.9567C45.0114 38.4693 38.1725 45.1959 29.6406 45.9676Z" fill="#F85E00"></path></svg>